<svg xmlns="http://www.w3.org/2000/svg" width="400" height="400" viewBox="0 0 400 400">
  <rect width="400" height="400" fill="#15171a"/>
  <g stroke="#3a4045" stroke-width="2" fill="none">
    <polygon points="0,0 400,0 280,140 120,140" fill="#23272b"/>
    <polygon points="0,400 400,400 280,260 120,260" fill="#1c2024"/>
    <polygon points="0,0 0,400 120,260 120,140" fill="#191c1f"/>
    <polygon points="400,0 400,400 280,260 280,140" fill="#191c1f"/>
    <line x1="120" y1="140" x2="200" y2="190"/><line x1="280" y1="140" x2="200" y2="190"/>
    <line x1="120" y1="260" x2="200" y2="210"/><line x1="280" y1="260" x2="200" y2="210"/>
  </g>
  <rect x="186" y="150" width="28" height="100" fill="#c9a23a" opacity="0.18"/>
  <rect x="194" y="150" width="12" height="100" fill="#e8d27a" opacity="0.30"/>
  <text x="200" y="385" font-family="monospace" font-size="12" fill="#5a6066"
        text-anchor="middle" letter-spacing="3">SUBNIVEL B — ACCESO BIOMÉTRICO</text>
  <rect width="400" height="400" fill="#1a3a6b" opacity="0.06"/>
</svg>
